<svg id="permissions" xmlns="http://www.w3.org/2000/svg" viewBox="0 0 20 20"><defs><style>.cls-1{fill:#99a1a7;}</style></defs><title>action_permissions</title><g id="Permission_Action" data-name="Permission Action"><path class="cls-1" d="M17.15,15.28,11.69,9.82a5.09,5.09,0,0,0-.78-6.05,4.89,4.89,0,0,0-7,0,5.1,5.1,0,0,0,0,7.13,4.88,4.88,0,0,0,6.15.69l2.21,2.21-.66.67a1,1,0,0,0,0,1.43,1,1,0,0,0,1.4,0l.67-.68.71.71-.68.69a1,1,0,0,0,0,1.43,1,1,0,0,0,1.4,0l.7-.71s0,0,0-.07a1.2,1.2,0,0,0,1.29-2ZM9.51,9.47a2.93,2.93,0,0,1-4.2,0,3.06,3.06,0,0,1,0-4.28,2.93,2.93,0,0,1,4.2,0A3.06,3.06,0,0,1,9.51,9.47Z"/></g></svg>