<svg xmlns="http://www.w3.org/2000/svg" viewBox="0 0 20 20"><defs><style>.cls-1{fill:none;opacity:0.1;}.cls-2,.cls-3{fill:#99a1a7;}.cls-3{fill-rule:evenodd;}</style></defs><title>action_newscanbutton</title><g id="Layer_2" data-name="Layer 2"><g id="_20x20_squares_boundaries" data-name="20x20 squares boundaries"><rect class="cls-1" width="20" height="20"/></g><g id="icons"><path class="cls-2" d="M10.8,15.2H4.54a2,2,0,0,1-2-2V6.73a2,2,0,0,1,2-2h8.72a2,2,0,0,1,2,2v3.49h2V6.73a4,4,0,0,0-4-4H4.54a4,4,0,0,0-4,4V13.2a4,4,0,0,0,4,4H10.8Z"/><polygon class="cls-3" points="19.33 15.07 17.33 15.07 17.33 13.07 15.33 13.07 15.33 15.07 13.33 15.07 13.33 17.07 15.33 17.07 15.33 19.07 17.33 19.07 17.33 17.07 19.33 17.07 19.33 15.07"/><path class="cls-3" d="M4.42,7.78S4.15,6.07,5.79,6.07h5.54L4.45,10.14S4.42,7.82,4.42,7.78Z"/></g></g></svg>