<svg xmlns="http://www.w3.org/2000/svg" viewBox="0 0 20 20"><defs><style>.cls-1{fill:none;opacity:0.1;}.cls-2{fill:#99a1a7;fill-rule:evenodd;}</style></defs><title>action_newfolder</title><g id="Layer_2" data-name="Layer 2"><g id="_20x20_squares_boundaries" data-name="20x20 squares boundaries"><rect class="cls-1" width="20" height="20"/></g><g id="icons"><path class="cls-2" d="M10.65,15.72l-7.21.08a1,1,0,0,1-1-1l-.11-10a1,1,0,0,1,1-1l4,0L8.69,5.85l.59.88h1.07l4,0a1,1,0,0,1,1,1l0,3.36,2,0,0-3.36a3,3,0,0,0-3-3l-4,0-2-3-5,.06a3,3,0,0,0-3,3l.11,10a3,3,0,0,0,3,3l7.21-.08Z"/><polygon class="cls-2" points="19.33 15.6 17.33 15.6 17.33 13.6 15.33 13.6 15.33 15.6 13.33 15.6 13.33 17.6 15.33 17.6 15.33 19.6 17.33 19.6 17.33 17.6 19.33 17.6 19.33 15.6"/></g></g></svg>