<svg id="edit_view_properties" data-name="edit / view properties" xmlns="http://www.w3.org/2000/svg" viewBox="0 0 20 20"><defs><style>.cls-1{fill:#9da5aa;fill-rule:evenodd;}</style></defs><title>action_edit</title><g id="Properties"><path class="cls-1" d="M5,4.27V3A1,1,0,0,0,3,3V4.27A2,2,0,0,0,3,7.73V17a1,1,0,0,0,2,0V7.73A2,2,0,0,0,5,4.27Zm12,3V3a1,1,0,0,0-2,0V7.27a2,2,0,0,0,0,3.46V17a1,1,0,0,0,2,0V10.73a2,2,0,0,0,0-3.46Zm-6,5V3A1,1,0,0,0,9,3v9.27a2,2,0,0,0,0,3.46V17a1,1,0,0,0,2,0V15.73a2,2,0,0,0,0-3.46Z"/></g></svg>