<svg xmlns="http://www.w3.org/2000/svg" xmlns:xlink="http://www.w3.org/1999/xlink" viewBox="0 0 16 17"><defs><style>.cls-1{fill:none;}.cls-2{stroke:#e6b900;fill:url(#linear-gradient);}</style><linearGradient id="linear-gradient" x1="7.89" y1="15.16" x2="7.89" y2="1.23" gradientUnits="userSpaceOnUse"><stop offset="0" stop-color="#f6d13e"/><stop offset="1" stop-color="#fbe9a4"/></linearGradient></defs><title>afp-primarykey-nomatch</title><g id="Layer_18" data-name="Layer 18"><rect class="cls-1" width="16" height="17"/></g><g id="Layer_15" data-name="Layer 15"><path class="cls-2" d="M15.08,11.1,10.2,2.48h0A2.53,2.53,0,0,0,7.84,1.23,2.56,2.56,0,0,0,5.45,2.48L.68,11.07a2.79,2.79,0,0,0-.3,1.24,2.86,2.86,0,0,0,2.87,2.86h9.26a2.83,2.83,0,0,0,2.87-2.82A4.57,4.57,0,0,0,15.08,11.1Z"/><path d="M7.88,13.79a1.32,1.32,0,0,1-1.24-1.4A1.26,1.26,0,0,1,7.9,11a1.29,1.29,0,0,1,1.24,1.37A1.29,1.29,0,0,1,7.9,13.79Z"/><polygon points="7.25 9.28 7.01 4.77 8.77 4.77 8.53 9.28 7.25 9.28"/></g></svg>