<svg xmlns="http://www.w3.org/2000/svg" viewBox="0 0 20 20"><defs><style>.cls-1{fill:none;opacity:0.1;}.cls-2,.cls-3{fill:#99a1a7;}.cls-3{fill-rule:evenodd;}</style></defs><title>ckbutton_scan</title><g id="Layer_2" data-name="Layer 2"><g id="_20x20_squares_boundaries" data-name="20x20 squares boundaries"><rect class="cls-1" width="20" height="20"/></g><g id="icons"><path class="cls-2" d="M13.92,2.66H5.21a4,4,0,0,0-4,4v6.48a4,4,0,0,0,4,4h8.72a4,4,0,0,0,4-4V6.66A4,4,0,0,0,13.92,2.66Zm2,10.48a2,2,0,0,1-2,2H5.21a2,2,0,0,1-2-2V6.66a2,2,0,0,1,2-2h8.72a2,2,0,0,1,2,2Z"/><path class="cls-3" d="M5.09,7.72S4.82,6,6.46,6H12L5.12,10.07S5.09,7.75,5.09,7.72Z"/></g></g></svg>