<svg xmlns="http://www.w3.org/2000/svg" viewBox="0 0 20 20"><defs><style>.cls-1{fill:none;opacity:0.1;}.cls-2{fill:#99a1a7;}</style></defs><title>ckbutton_mfd</title><g id="Layer_2" data-name="Layer 2"><g id="_20x20_squares_boundaries" data-name="20x20 squares boundaries"><rect class="cls-1" width="20" height="20"/></g><g id="icons"><path class="cls-2" d="M13.92,2.79H5.21a4,4,0,0,0-4,4v6.48a4,4,0,0,0,4,4h8.72a4,4,0,0,0,4-4V6.79A4,4,0,0,0,13.92,2.79Zm2,10.48a2,2,0,0,1-2,2H5.21a2,2,0,0,1-2-2V6.79a2,2,0,0,1,2-2h8.72a2,2,0,0,1,2,2Z"/><rect class="cls-2" x="6.12" y="7.05" width="2.85" height="2.85"/><rect class="cls-2" x="9.78" y="7.05" width="2.85" height="2.85"/><rect class="cls-2" x="6.12" y="10.59" width="2.85" height="2.85"/><rect class="cls-2" x="9.78" y="10.59" width="2.85" height="2.85"/></g></g></svg>