<svg id="dep._menu" data-name="dep. menu" xmlns="http://www.w3.org/2000/svg" viewBox="0 0 16 17"><defs><style>.cls-1{fill:#fff;stroke:#404041;}.cls-1,.cls-3{stroke-miterlimit:10;}.cls-2{fill:#58595b;}.cls-3{fill:none;stroke:#929497;}.cls-4{fill:#808184;}.cls-5{fill:#d0d2d3;}</style></defs><title>dbDependentMenu</title><rect class="cls-1" x="0.5" y="0.5" width="11" height="5"/><polygon class="cls-2" points="10.5 2 9.06 4.5 7.61 2 10.5 2"/><rect class="cls-1" x="2.5" y="5.5" width="11" height="5"/><polygon class="cls-2" points="12.5 7 11.06 9.5 9.61 7 12.5 7"/><rect class="cls-1" x="4.5" y="10.5" width="11" height="5"/><polygon class="cls-2" points="14.5 12 13.06 14.5 11.61 12 14.5 12"/><polyline class="cls-3" points="0.5 6 0.5 8.5 2 8.5"/><polyline class="cls-3" points="2.5 11 2.5 13.5 4 13.5"/><rect class="cls-4" x="2" y="2" width="4" height="2"/><rect class="cls-5" x="4" y="7" width="4" height="2"/><rect class="cls-5" x="6" y="12" width="4" height="2"/></svg>