<svg xmlns="http://www.w3.org/2000/svg" viewBox="0 0 16 17"><defs><style>.cls-1{fill:none;}.cls-2{fill:#404041;}.cls-3{fill:#fff;stroke:#404041;stroke-miterlimit:10;}.cls-4{fill:#58595b;}</style></defs><title>dbMenu</title><g id="Layer_2" data-name="Layer 2"><g id="Layer_18" data-name="Layer 18"><rect class="cls-1" width="16" height="17"/></g><g id="dbMenu_copy_2" data-name="dbMenu copy 2"><path class="cls-2" d="M10.72,6.29a9.34,9.34,0,0,1-4.86,1,10.79,10.79,0,0,1-5.12-1C.41,6.53,0,6.78,0,7V8.5c0,1,2.73,1.75,5.63,1.75s5.44-.78,5.44-1.75L11.21,7A.91.91,0,0,0,10.72,6.29Z"/><path class="cls-2" d="M10.72,10.67a9.34,9.34,0,0,1-4.86,1,10.79,10.79,0,0,1-5.12-1c-.32.22-.74.47-.74.73v1.46c0,1,2.73,1.75,5.63,1.75s5.44-.78,5.44-1.75l.13-1.46A.91.91,0,0,0,10.72,10.67Z"/><path class="cls-2" d="M10.72,4.83a.94.94,0,0,0,.47-.71l.08-1.46c0-1-2.73-1.75-5.63-1.75S0,1.69,0,2.66V4.12c0,.26.41.51.74.73a10.28,10.28,0,0,0,5,1A9.82,9.82,0,0,0,10.72,4.83Z"/><rect class="cls-3" x="5.5" y="8.5" width="10" height="5"/><polygon class="cls-4" points="14.5 10 13.06 12.5 11.61 10 14.5 10"/></g></g></svg>