<svg id="db" xmlns="http://www.w3.org/2000/svg" viewBox="0 0 16 17"><defs><style>.cls-1{fill:#6d6e70;}</style></defs><title>ds-db</title><path class="cls-1" d="M12.72,7.29a9.34,9.34,0,0,1-4.86,1,10.79,10.79,0,0,1-5.12-1C2.41,7.53,2,7.78,2,8V9.5c0,1,2.73,1.75,5.63,1.75s5.44-.78,5.44-1.75L13.21,8A.91.91,0,0,0,12.72,7.29Z"/><path class="cls-1" d="M12.72,11.67a9.34,9.34,0,0,1-4.86,1,10.79,10.79,0,0,1-5.12-1c-.32.22-.74.47-.74.73v1.46c0,1,2.73,1.75,5.63,1.75s5.44-.78,5.44-1.75l.13-1.46A.91.91,0,0,0,12.72,11.67Z"/><path class="cls-1" d="M12.72,5.83a.94.94,0,0,0,.47-.71l.08-1.46c0-1-2.73-1.75-5.63-1.75S2,2.69,2,3.66V5.12c0,.26.41.51.74.73a10.28,10.28,0,0,0,5,1A9.82,9.82,0,0,0,12.72,5.83Z"/></svg>