<svg xmlns="http://www.w3.org/2000/svg" viewBox="0 0 20 20"><defs><style>.cls-1{fill:none;opacity:0.1;}.cls-2{fill:#99a1a7;}</style></defs><title>groupaccess</title><g id="Layer_2" data-name="Layer 2"><g id="_20x20_squares_boundaries" data-name="20x20 squares boundaries"><rect class="cls-1" width="20" height="20"/></g><g id="icons"><path class="cls-2" d="M8.52,15.38H3.69a1.46,1.46,0,0,1-1.46-1.46c0-.81,2.62-1.46,5.84-1.46.55,0,1.08,0,1.59.06V12A4.39,4.39,0,0,1,12,8.19V5.64a3.9,3.9,0,1,0-7.79,0V8.57h0a3.88,3.88,0,0,0,.73,2.24C2.19,11.34.28,12.53.28,13.92a3.41,3.41,0,0,0,3.41,3.41H8.52ZM6.13,5.64a1.95,1.95,0,1,1,3.9,0V8.53a1.95,1.95,0,1,1-3.9,0Z"/><path class="cls-2" d="M18.77,13.32V12.25a3.41,3.41,0,1,0-6.82,0v1.07a2,2,0,0,0-1.15,1.8V18a2,2,0,0,0,2,2h5.11a2,2,0,0,0,2-2V15.12A2,2,0,0,0,18.77,13.32ZM14,12.25a1.41,1.41,0,1,1,2.82,0v.87H14Zm1.41,5.82a1.51,1.51,0,1,1,1.51-1.51A1.51,1.51,0,0,1,15.36,18.07Z"/></g></g></svg>