<svg xmlns="http://www.w3.org/2000/svg" viewBox="0 0 16 16"><defs><style>.cls-1,.cls-2{fill:none;}.cls-2{stroke:#8e9aa9;stroke-miterlimit:10;}.cls-3{fill:#8e9aa9;}</style></defs><title>icon_notice_info</title><g id="Layer_2" data-name="Layer 2"><g id="bounding_boxes" data-name="bounding boxes"><rect class="cls-1" width="16" height="16"/></g><g id="Layer_1-2" data-name="Layer 1"><circle class="cls-2" cx="8" cy="8" r="6.88"/><path class="cls-3" d="M7,4.78a.82.82,0,0,1,.28-.64A1,1,0,0,1,8,3.9a1,1,0,0,1,.73.25.87.87,0,0,1,0,1.28A1.05,1.05,0,0,1,8,5.67a1.05,1.05,0,0,1-.72-.25A.82.82,0,0,1,7,4.78ZM8.92,12.1H7.1V7.25H8.92Z"/></g></g></svg>