<svg xmlns="http://www.w3.org/2000/svg" viewBox="0 0 20 20"><defs><style>.cls-1{fill:none;opacity:0.1;}.cls-2{fill:#99a1a7;fill-rule:evenodd;}</style></defs><title>mfd_device</title><g id="Layer_2" data-name="Layer 2"><g id="_20x20_squares_boundaries" data-name="20x20 squares boundaries"><rect class="cls-1" width="20" height="20"/></g><g id="icons"><g id="printer"><path class="cls-2" d="M16.92,9h-1V5a3,3,0,0,0-3-3h-5a3,3,0,0,0-3,3V9h-1a3,3,0,0,0-3,3v2a3,3,0,0,0,3,3H5.1a3,3,0,0,0,2.83,2h5a3,3,0,0,0,2.83-2h1.17a3,3,0,0,0,3-3V12A3,3,0,0,0,16.92,9Zm-10-4a1,1,0,0,1,1-1h5a1,1,0,0,1,1,1V9h-7Zm6,12h-5a1,1,0,0,1,0-2h5a1,1,0,1,1,0,2Zm5-3a1,1,0,0,1-1,1H15.75a3,3,0,0,0-2.83-2h-5A3,3,0,0,0,5.1,15H3.92a1,1,0,0,1-1-1V12a1,1,0,0,1,1-1h13a1,1,0,0,1,1,1Z"/></g></g></g></svg>