<svg xmlns="http://www.w3.org/2000/svg" viewBox="0 0 10 10"><defs><style>.cls-1,.cls-2,.cls-3{fill:#99a1a7;}.cls-1{opacity:0.1;}.cls-3{fill-rule:evenodd;}</style></defs><title>mfd_button_small</title><g id="Layer_2" data-name="Layer 2"><g id="squares_boundaries" data-name="squares boundaries"><rect class="cls-1" width="10" height="10"/></g><g id="icons"><path class="cls-2" d="M5.72,0H4A4,4,0,0,0,0,4V5.48a4,4,0,0,0,4,4H5.72a4,4,0,0,0,4-4V4A4,4,0,0,0,5.72,0Zm2,5.48a2,2,0,0,1-2,2H4a2,2,0,0,1-2-2V4A2,2,0,0,1,4,2H5.72a2,2,0,0,1,2,2Z"/><path class="cls-3" d="M5.32,3.29a1.34,1.34,0,0,0-1.9,1.9Z"/></g></g></svg>