<svg xmlns="http://www.w3.org/2000/svg" viewBox="0 0 20 20"><defs><style>.cls-1{fill:none;opacity:0.1;}.cls-2,.cls-3{fill:#99a1a7;}.cls-3{fill-rule:evenodd;}</style></defs><title>scanType_DocuShare</title><g id="Layer_2" data-name="Layer 2"><g id="_20x20_squares_boundaries" data-name="20x20 squares boundaries"><rect class="cls-1" width="20" height="20"/></g><g id="icons"><path class="cls-2" d="M15.92,2.84H9.38a4,4,0,0,0-4,4V13a4,4,0,0,0,4,4h6.54a4,4,0,0,0,4-4V6.84A4,4,0,0,0,15.92,2.84Zm2,4V8.75H13.65V4.84h2.27A2,2,0,0,1,17.92,6.84Zm-8.54-2h2.27V8.75H7.38V6.84A2,2,0,0,1,9.38,4.84ZM7.38,13V10.75h4.27V15H9.38A2,2,0,0,1,7.38,13Zm8.54,2H13.65V10.75h4.27V13A2,2,0,0,1,15.92,15Z"/><polygon class="cls-3" points="3.63 9.99 0.39 13.34 0.39 6.65 3.63 9.99"/></g></g></svg>