<svg xmlns="http://www.w3.org/2000/svg" viewBox="0 0 20 20"><defs><style>.cls-1{fill:none;opacity:0.1;}.cls-2{fill:#99a1a7;fill-rule:evenodd;}</style></defs><title>scanType_Email</title><g id="Layer_2" data-name="Layer 2"><g id="_20x20_squares_boundaries" data-name="20x20 squares boundaries"><rect class="cls-1" width="20" height="20"/></g><g id="icons"><g id="mail"><path class="cls-2" d="M16.58,3.94h-8a3,3,0,0,0-3,3v6a3,3,0,0,0,3,3h8a3,3,0,0,0,3-3v-6A3,3,0,0,0,16.58,3.94Zm-8,2h8a1,1,0,0,1,.33.06L12.58,9.66,8.25,6A1,1,0,0,1,8.58,5.94Zm9,7a1,1,0,0,1-1,1h-8a1,1,0,0,1-1-1V8L12,11.72a1,1,0,0,0,1.25,0L17.58,8Z"/></g><polygon class="cls-2" points="3.63 10.18 0.39 13.52 0.39 6.83 3.63 10.18"/></g></g></svg>