<svg xmlns="http://www.w3.org/2000/svg" viewBox="0 0 72 35"><defs><style>.cls-1{fill:#263238;}.cls-2{fill:#fff;}.cls-3{fill:#248fef;}</style></defs><title>logo</title><g id="bg"><rect class="cls-1" width="72" height="35"/></g><g id="Layer_2" data-name="Layer 2"><path class="cls-2" d="M36,3a3,3,0,0,0-3-3H3A3,3,0,0,0,0,3V32a3,3,0,0,0,3,3H33a3,3,0,0,0,3-3ZM17,32H4.57C3.67,32,3,31.57,3,30.68V19H17Zm0-16H3V4.67A1.62,1.62,0,0,1,4.57,3H17Zm14,8H23V21h8Zm2-8H20V3H31.57A1.51,1.51,0,0,1,33,4.67Z"/><path class="cls-3" d="M72,3a3,3,0,0,0-3-3H39a3,3,0,0,0-3,3V32a3,3,0,0,0,3,3H69a3,3,0,0,0,3-3ZM53,32H40.57c-.9,0-1.57-.43-1.57-1.32V19H53Zm0-16H39V4.67A1.62,1.62,0,0,1,40.57,3H53Zm14,8H59V21h8Zm2-8H56V3H67.57A1.51,1.51,0,0,1,69,4.67Z"/></g></svg>